<?xml version='1.0' encoding='utf-8'?>
<COLLADA xmlns="http://www.collada.org/2005/11/COLLADASchema" version="1.4.1">
  <asset>
    <contributor>
      <author>Blender User</author>
      <authoring_tool>Blender 2.91.0 commit date:2020-11-25, commit time:08:34, hash:0f45cab862b8</authoring_tool>
    </contributor>
    <created>2021-01-12T21:35:34</created>
    <modified>2021-01-12T21:35:34</modified>
    <unit name="meter" meter="1" />
    <up_axis>Z_UP</up_axis>
  </asset>
  <library_effects>
    <effect id="rastMat-effect">
      <profile_COMMON>
        <newparam sid="EXPORT_GOOGLE_SAT_WM_tif-surface">
          <surface type="2D">
            <init_from>EXPORT_GOOGLE_SAT_WM_tif</init_from>
          </surface>
        </newparam>
        <newparam sid="EXPORT_GOOGLE_SAT_WM_tif-sampler">
          <sampler2D>
            <source>EXPORT_GOOGLE_SAT_WM_tif-surface</source>
          </sampler2D>
        </newparam>
        <technique sid="common">
          <lambert>
            <emission>
              <color sid="emission">0 0 0 1</color>
            </emission>
            <diffuse>
              <texture texture="EXPORT_GOOGLE_SAT_WM_tif-sampler" texcoord="EXPORT_GOOGLE_SAT_WM-mesh-map-0" />
            </diffuse>
            <index_of_refraction>
              <float sid="ior">1.45</float>
            </index_of_refraction>
          </lambert>
        </technique>
      </profile_COMMON>
    </effect>
  </library_effects>
  <library_images>
    <image id="EXPORT_GOOGLE_SAT_WM_tif" name="EXPORT_GOOGLE_SAT_WM_tif">
      <init_from>EXPORT_GOOGLE_SAT_WM.tif</init_from>
    </image>
  </library_images>
  <library_materials>
    <material id="rastMat-material" name="rastMat">
      <instance_effect url="#rastMat-effect" />
    </material>
  </library_materials>
  <library_geometries>
    <geometry id="Areas_building_002-mesh" name="Areas:building.002">
      <mesh>
        <source id="Areas_building_002-mesh-positions">
          <float_array id="Areas_building_002-mesh-positions-array" count="144">-75.60312 41.65127 -1.036426 -92.92443 5.574493 -0.8227348 -86.05603 2.275157 -0.6562376 -91.16558 -8.369126 -0.6025753 -84.80924 -11.43279 -0.4747448 -86.38998 -14.73212 -0.4760656 -59.85141 -27.47773 -0.2665959 -53.02753 -13.25921 -0.3769245 -47.98475 -15.69442 -0.3253718 -49.12021 -18.05108 -0.2821579 -36.81941 -23.96238 -0.1737937 -31.83229 -13.59307 -0.3638754 -42.39651 -8.526235 -0.4551754 -40.11446 -3.773625 -0.4741783 -31.11985 -8.094182 -0.4596968 -20.04356 14.9619 -0.4741869 -75.60312 41.65127 4.826206 -92.92443 5.574493 4.826206 -86.05603 2.275157 4.826206 -91.16558 -8.369126 4.826206 -84.80924 -11.43279 4.826206 -86.38998 -14.73212 4.826206 -59.85141 -27.47773 4.826206 -53.02753 -13.25921 4.826206 -47.98475 -15.69442 4.826206 -49.12021 -18.05108 4.826206 -36.81941 -23.96238 4.826206 -31.83229 -13.59307 4.826206 -42.39651 -8.526235 4.826206 -40.11446 -3.773625 4.826206 -31.11985 -8.094182 4.826206 -20.04356 14.9619 4.826206 -92.92443 5.574493 17.5748 -75.60312 41.65127 17.5748 -86.05603 2.275157 17.5748 -91.16558 -8.369126 17.5748 -84.80924 -11.43279 17.5748 -86.38998 -14.73212 17.5748 -59.85141 -27.47773 17.5748 -53.02753 -13.25921 17.5748 -47.98475 -15.69442 17.5748 -49.12021 -18.05108 17.5748 -36.81941 -23.96238 17.5748 -31.83229 -13.59307 17.5748 -42.39651 -8.526235 17.5748 -40.11446 -3.773625 17.5748 -31.11985 -8.094182 17.5748 -20.04356 14.9619 17.5748</float_array>
          <technique_common>
            <accessor source="#Areas_building_002-mesh-positions-array" count="48" stride="3">
              <param name="X" type="float" />
              <param name="Y" type="float" />
              <param name="Z" type="float" />
            </accessor>
          </technique_common>
        </source>
        <source id="Areas_building_002-mesh-normals">
          <float_array id="Areas_building_002-mesh-normals-array" count="207">-0.900887 0.434054 0 -0.9014796 0.4328218 0 -0.4329987 -0.9013947 0 -0.901513 0.4327521 0 -0.434184 -0.9008242 0 -0.9018368 0.432077 0 -0.432927 -0.9014291 0 0.9015482 -0.4326791 0 -0.4348602 -0.9004981 0 -0.9008859 0.4340563 0 -0.4331433 -0.9013252 0 0.9011888 -0.4334269 0 0.4324542 0.901656 0 0.9014644 -0.4328534 0 -0.4329872 -0.9014002 0 0.9013801 -0.4330288 0 0.4330051 0.9013915 0 0 0 1 -0.432998 -0.9013949 0 -0.433143 -0.9013252 0 -0.9015132 0.4327517 0 0.9011888 -0.433427 0 -0.4341841 -0.9008243 0 0.4324543 0.901656 0 -0.9018351 0.4320805 0 0.901465 -0.4328521 0 -0.4329272 -0.9014289 0 -0.4329873 -0.9014 0 0.9015478 -0.4326795 0 0.9013801 -0.4330289 0 -0.4348599 -0.9004982 0 -0.9014796 0.4328219 0 0.433005 0.9013915 0 -0.9008855 0.4340569 0 -0.9014798 0.4328213 0 -0.432998 -0.901395 0 -0.9015137 0.4327508 0 -0.4341837 -0.9008245 0 -0.9018356 0.4320794 0 0.901548 -0.4326792 0 -0.4348599 -0.9004982 0 -0.9008868 0.4340541 0 -0.4331428 -0.9013254 0 0.9011887 -0.4334269 0 0.9014642 -0.4328537 0 -0.4329871 -0.9014002 0 0.9013801 -0.4330288 0 0.433005 0.9013916 0 0 0 1 0 0 1 0 0 1 -1.20873e-7 0 1 -7.68236e-7 0 1 0 0 1 -2.83339e-7 0 1 0 0 1 0 0 1 -0.4331428 -0.9013254 0 -0.9015132 0.4327517 0 0.9011889 -0.4334266 0 -0.4341831 -0.9008247 0 0.4324544 0.9016558 0 -0.9018371 0.4320763 0 0.9014639 -0.4328543 0 -0.432927 -0.9014291 0 -0.4329869 -0.9014002 0 0.9013801 -0.4330287 0 -0.9014797 0.4328215 0 0.4330051 0.9013915 0</float_array>
          <technique_common>
            <accessor source="#Areas_building_002-mesh-normals-array" count="69" stride="3">
              <param name="X" type="float" />
              <param name="Y" type="float" />
              <param name="Z" type="float" />
            </accessor>
          </technique_common>
        </source>
        <vertices id="Areas_building_002-mesh-vertices">
          <input semantic="POSITION" source="#Areas_building_002-mesh-positions" />
        </vertices>
        <triangles count="78">
          <input semantic="VERTEX" source="#Areas_building_002-mesh-vertices" offset="0" />
          <input semantic="NORMAL" source="#Areas_building_002-mesh-normals" offset="1" />
          <p>25 0 40 0 24 0 1 1 16 1 0 1 2 2 17 2 1 2 3 3 18 3 2 3 4 4 19 4 3 4 21 5 4 5 5 5 6 6 21 6 5 6 23 7 6 7 7 7 8 8 23 8 7 8 9 9 24 9 8 9 10 10 25 10 9 10 27 11 10 11 11 11 28 12 11 12 12 12 29 13 12 13 13 13 14 14 29 14 13 14 31 15 14 15 15 15 16 16 15 16 0 16 39 17 40 17 44 17 18 18 32 18 17 18 26 19 41 19 25 19 19 20 34 20 18 20 27 21 42 21 26 21 20 22 35 22 19 22 28 23 43 23 27 23 21 24 36 24 20 24 29 25 44 25 28 25 22 26 37 26 21 26 30 27 45 27 29 27 23 28 38 28 22 28 31 29 46 29 30 29 24 30 39 30 23 30 17 31 33 31 16 31 16 32 47 32 31 32 25 33 41 33 40 33 1 34 17 34 16 34 2 35 18 35 17 35 3 36 19 36 18 36 4 37 20 37 19 37 21 38 20 38 4 38 6 6 22 6 21 6 23 39 22 39 6 39 8 40 24 40 23 40 9 41 25 41 24 41 10 42 26 42 25 42 27 43 26 43 10 43 28 23 27 23 11 23 29 44 28 44 12 44 14 45 30 45 29 45 31 46 30 46 14 46 16 47 31 47 15 47 47 17 33 17 45 17 33 48 32 48 34 48 34 17 35 17 36 17 33 49 34 49 45 49 45 17 46 17 47 17 42 50 43 50 44 50 41 17 42 17 40 17 42 51 44 51 40 51 44 52 45 52 39 52 45 53 34 53 39 53 36 54 37 54 38 54 34 55 36 55 39 55 36 56 38 56 39 56 18 18 34 18 32 18 26 57 42 57 41 57 19 58 35 58 34 58 27 59 43 59 42 59 20 60 36 60 35 60 28 61 44 61 43 61 21 62 37 62 36 62 29 63 45 63 44 63 22 64 38 64 37 64 30 65 46 65 45 65 23 7 39 7 38 7 31 66 47 66 46 66 24 30 40 30 39 30 17 67 32 67 33 67 16 68 33 68 47 68</p>
        </triangles>
      </mesh>
    </geometry>
    <geometry id="Areas_building_001-mesh" name="Areas:building.001">
      <mesh>
        <source id="Areas_building_001-mesh-positions">
          <float_array id="Areas_building_001-mesh-positions-array" count="336">24.48424 82.42196 15.00015 59.36063 65.55198 15.25177 75.37951 98.66352 14.66325 40.50311 115.5336 15 24.48424 82.42196 35.25177 59.36063 65.55198 35.25177 75.37951 98.66352 35.25177 40.50311 115.5336 35.25177 155.9303 137.8045 14.44857 148.3383 141.5556 14.44857 142.4829 137.7062 14.44857 136.8056 134.8389 14.44857 132.4641 130.1844 14.44857 129.9706 124.3319 14.17427 129.6255 117.9688 14.29093 130.7164 113.6089 14.37084 133.9892 108.1492 14.47092 138.9429 104.1428 14.54436 144.9653 102.0807 14.58217 151.3217 102.1986 14.58001 156.3756 103.9661 14.54761 161.3961 107.8743 14.47597 164.7913 113.2554 14.44857 166.1271 119.4811 14.44857 165.27 125.7852 14.44857 166.9732 131.7163 14.44857 155.9303 137.8045 34.58217 148.3383 141.5556 34.58217 142.4829 137.7062 34.58217 136.8056 134.8389 34.58217 132.4641 130.1844 34.58217 129.9706 124.3319 34.58217 129.6255 117.9688 34.58217 130.7164 113.6089 34.58217 133.9892 108.1492 34.58217 138.9429 104.1428 34.58217 144.9653 102.0807 34.58217 151.3217 102.1986 34.58217 156.3756 103.9661 34.58217 161.3961 107.8743 34.58217 164.7913 113.2554 34.58217 166.1271 119.4811 34.58217 165.27 125.7852 34.58217 166.9732 131.7163 34.58217 -15.75776 102.0218 15 11.08137 89.47241 14.99999 24.03896 115.9853 14.99999 -1.809429 128.6526 15 -15.75776 102.0218 35 11.08137 89.47241 35 24.03896 115.9853 35 -1.809429 128.6526 35 101.5062 79.16187 15.00228 75.60214 25.999 15.97639 91.46517 18.26124 16 117.3692 71.44371 15.0962 101.5062 79.16187 36 75.60214 25.999 36 91.46517 18.26124 36 117.3692 71.44371 36 100.6268 163.9051 14.36291 84.31846 130.9307 14.36291 118.4379 114.041 14.36291 134.7462 147.0153 14.36291 100.6268 163.9051 34.36291 84.31846 130.9307 34.36291 118.4379 114.041 34.36291 134.7462 147.0153 34.36291 -132.5764 68.96918 15 -148.3281 37.38961 15 -152.2577 39.3535 14.99999 -156.3988 31.06585 15 -112.6614 9.246973 15.25149 -108.7875 17.02399 15.14058 -103.177 14.21562 15.19281 -87.16921 46.30572 14.99999 -132.5764 68.96918 35.25149 -148.3281 37.38961 35.25149 -152.2577 39.3535 35.25149 -156.3988 31.06585 35.25149 -112.6614 9.246973 35.25149 -108.7875 17.02399 35.25149 -103.177 14.21562 35.25149 -87.16921 46.30572 35.25149 -56.47843 123.3107 14.7679 -15.85795 102.1397 15 0.895635 134.5051 14.88395 -40.8603 156.2457 14.88395 -56.47843 123.3107 35 -15.85795 102.1397 35 0.895635 134.5051 35 -40.8603 156.2457 35 45.32324 -17.71723 16 62.77814 -26.20121 16 55.49784 -41.18563 16.14024 85.79901 -55.91471 16 89.6618 -47.96101 16 113.1836 -59.39077 15.80135 138.5644 -7.131876 15.00907 113.473 5.063881 15.792 110.6567 -0.7492359 15.88213 64.4702 21.69806 16 45.32324 -17.71723 36.14024 62.77814 -26.20121 36.14024 55.49784 -41.18563 36.14024 85.79901 -55.91471 36.14024 89.6618 -47.96101 36.14024 113.1836 -59.39077 36.14024 138.5644 -7.131876 36.14024 113.473 5.063881 36.14024 110.6567 -0.7492359 36.14024 64.4702 21.69806 36.14024</float_array>
          <technique_common>
            <accessor source="#Areas_building_001-mesh-positions-array" count="112" stride="3">
              <param name="X" type="float" />
              <param name="Y" type="float" />
              <param name="Z" type="float" />
            </accessor>
          </technique_common>
        </source>
        <source id="Areas_building_001-mesh-normals">
          <float_array id="Areas_building_001-mesh-normals-array" count="411">0 0 1 -0.4354419 -0.9002169 0 0.9001896 -0.4354985 0 0.4354438 0.9002159 0 -0.9001902 0.4354971 0 3.54688e-7 0 1 0.4429677 0.8965376 0 -0.549334 0.8356029 0 -0.4508138 0.8926181 0 -0.731266 0.6820924 0 -0.9199807 0.3919639 0 -0.9985327 0.05415278 0 -0.9700928 -0.2427346 0 -0.8577025 -0.5141463 0 -0.6288424 -0.7775329 0 -0.3239406 -0.9460775 0 0.01854574 -0.9998281 0 0.3301236 -0.9439378 0 0.61427 -0.789096 0 0.84573 -0.5336112 0 0.9777477 -0.2097844 0 0.9908835 0.1347222 0 0.9611541 -0.2760127 0 0.4828072 0.8757267 0 -1.3719e-7 0 1 -0.4235634 -0.9058666 0 0.8984416 -0.4390934 0 0.4400599 0.8979685 0 -0.8858472 0.4639772 0 2.33949e-7 0 1 -0.898962 0.4380267 0 -0.4384099 -0.8987752 0 0.8990257 -0.437896 0 0.437512 0.8992126 0 0 0 1 -0.8963636 0.4433198 0 -0.4436368 -0.8962067 0 0.8963634 -0.4433202 0 0.4436398 0.8962052 0 -0.8948584 0.4463504 0 0.4470477 0.8945102 0 -0.8945443 0.4469795 0 -0.446398 -0.8948345 0 0.8950988 -0.4458681 0 -0.4476119 -0.8942281 0 0.8948425 -0.4463822 0 0.4465808 0.8947433 0 0 0 1 -0.4621835 -0.8867843 0 0.8880736 -0.4597012 0 0.4618127 0.8869775 0 -0.9035538 0.4284749 0 1.41443e-7 0 1 -0.4371495 -0.8993889 0 -0.8994574 0.4370084 0 -0.4371768 -0.8993756 0 0.8995283 -0.4368624 0 -0.4370555 -0.8994346 0 0.8995223 -0.4368751 0 0.4371511 0.8993882 0 -0.8999455 0.4360025 0 0.4371223 0.8994022 0 -0.8994867 0.4369483 0 0 0 1 -0.4354419 -0.9002169 0 0.9001896 -0.4354983 0 0.4354438 0.900216 0 -0.9001901 0.4354974 0 8.04513e-7 0 1 5.96174e-7 0 1 2.18344e-6 0 1 -3.75495e-7 0 1 4.57415e-7 0 1 0 0 1 -7.65245e-7 0 1 -3.61324e-6 0 1 8.14258e-7 0 1 -2.87304e-7 0 1 0.4429687 0.8965372 0 -0.5493355 0.8356019 0 -0.9199807 0.3919638 0 -0.9985326 0.05415451 0 -0.9700946 -0.2427272 0 -0.8577029 -0.5141457 0 -0.6288441 -0.7775316 0 -0.3239414 -0.9460772 0 0.0185458 -0.9998281 0 0.3301224 -0.9439381 0 0.6142688 -0.7890969 0 0.8457323 -0.5336074 0 0.9777462 -0.2097917 0 0.990884 0.1347185 0 0.9611551 -0.2760091 0 0.482808 0.8757262 0 0 0 1 -0.4235635 -0.9058665 0 0.8984414 -0.4390934 0 0.44006 0.8979684 0 -0.8858471 0.4639773 0 0 0 1 -0.8989619 0.4380269 0 -0.4384096 -0.8987753 0 0.8990257 -0.4378959 0 0.4375128 0.8992122 0 -0.8963635 0.4433197 0 -0.4436373 -0.8962066 0 0.8963634 -0.4433202 0 0.4436398 0.8962052 0 1.34177e-7 0 1 -1.55556e-7 0 1 -0.8948589 0.4463493 0 0.4470465 0.8945108 0 -0.8945462 0.4469754 0 -0.4463981 -0.8948345 0 0.8950988 -0.4458682 0 -0.4476118 -0.8942281 0 0.8948423 -0.4463824 0 0.4465807 0.8947435 0 -0.4621835 -0.8867844 0 0.8880736 -0.4597013 0 0.4618128 0.8869774 0 -0.9035537 0.428475 0 0 0 1 2.17496e-7 0 1 2.04883e-7 0 1 0 0 1 1.69348e-7 0 1 -0.4371492 -0.899389 0 -0.8994575 0.4370083 0 -0.437177 -0.8993756 0 0.8995273 -0.4368647 0 -0.4370551 -0.8994349 0 0.8995223 -0.4368748 0 0.4371508 0.8993882 0 -0.8999458 0.436002 0 0.4371222 0.8994022 0 -0.8994867 0.4369481 0</float_array>
          <technique_common>
            <accessor source="#Areas_building_001-mesh-normals-array" count="137" stride="3">
              <param name="X" type="float" />
              <param name="Y" type="float" />
              <param name="Z" type="float" />
            </accessor>
          </technique_common>
        </source>
        <vertices id="Areas_building_001-mesh-vertices">
          <input semantic="POSITION" source="#Areas_building_001-mesh-positions" />
        </vertices>
        <triangles count="152">
          <input semantic="VERTEX" source="#Areas_building_001-mesh-vertices" offset="0" />
          <input semantic="NORMAL" source="#Areas_building_001-mesh-normals" offset="1" />
          <p>5 0 7 0 4 0 1 1 4 1 0 1 6 2 1 2 2 2 3 3 6 3 2 3 0 4 7 4 3 4 37 5 39 5 31 5 27 6 8 6 9 6 28 7 9 7 10 7 29 8 10 8 11 8 30 9 11 9 12 9 31 10 12 10 13 10 14 11 31 11 13 11 15 12 32 12 14 12 16 13 33 13 15 13 17 14 34 14 16 14 18 15 35 15 17 15 37 16 18 16 19 16 38 17 19 17 20 17 39 18 20 18 21 18 40 19 21 19 22 19 41 20 22 20 23 20 42 21 23 21 24 21 43 22 24 22 25 22 26 23 25 23 8 23 49 24 51 24 48 24 49 25 44 25 45 25 50 26 45 26 46 26 47 27 50 27 46 27 44 28 51 28 47 28 56 29 58 29 59 29 53 30 56 30 52 30 54 31 57 31 53 31 59 32 54 32 55 32 56 33 55 33 52 33 65 34 67 34 64 34 65 35 60 35 61 35 66 36 61 36 62 36 67 37 62 37 63 37 64 38 63 38 60 38 81 0 82 0 83 0 77 39 68 39 69 39 78 40 69 40 70 40 71 41 78 41 70 41 72 42 79 42 71 42 81 43 72 43 73 43 74 44 81 44 73 44 83 45 74 45 75 45 68 46 83 46 75 46 88 47 90 47 91 47 85 48 88 48 84 48 90 49 85 49 86 49 91 50 86 50 87 50 88 51 87 51 84 51 103 52 106 52 110 52 103 53 92 53 93 53 94 54 103 54 93 54 105 55 94 55 95 55 106 56 95 56 96 56 107 57 96 57 97 57 108 58 97 58 98 58 99 59 108 59 98 59 100 60 109 60 99 60 101 61 110 61 100 61 102 62 101 62 92 62 5 63 6 63 7 63 1 64 5 64 4 64 6 65 5 65 1 65 3 66 7 66 6 66 0 67 4 67 7 67 43 68 26 68 42 68 26 69 27 69 28 69 28 70 29 70 30 70 26 71 28 71 42 71 40 0 41 0 39 0 41 72 42 72 28 72 39 73 41 73 31 73 28 74 30 74 31 74 31 75 32 75 33 75 33 0 34 0 35 0 35 0 36 0 33 0 36 76 37 76 33 76 37 0 38 0 39 0 31 0 41 0 28 0 31 77 33 77 37 77 27 78 26 78 8 78 28 79 27 79 9 79 29 8 28 8 10 8 30 9 29 9 11 9 31 80 30 80 12 80 14 81 32 81 31 81 15 82 33 82 32 82 16 83 34 83 33 83 17 84 35 84 34 84 18 85 36 85 35 85 37 86 36 86 18 86 38 87 37 87 19 87 39 88 38 88 20 88 40 89 39 89 21 89 41 90 40 90 22 90 42 91 41 91 23 91 43 92 42 92 24 92 26 93 43 93 25 93 49 94 50 94 51 94 49 95 48 95 44 95 50 96 49 96 45 96 47 97 51 97 50 97 44 98 48 98 51 98 56 99 57 99 58 99 53 100 57 100 56 100 54 101 58 101 57 101 59 102 58 102 54 102 56 103 59 103 55 103 65 0 66 0 67 0 65 104 64 104 60 104 66 105 65 105 61 105 67 106 66 106 62 106 64 107 67 107 63 107 83 108 76 108 81 108 76 109 77 109 81 109 77 0 78 0 79 0 79 0 80 0 77 0 80 0 81 0 77 0 77 110 76 110 68 110 78 111 77 111 69 111 71 112 79 112 78 112 72 113 80 113 79 113 81 114 80 114 72 114 74 115 82 115 81 115 83 116 82 116 74 116 68 117 76 117 83 117 88 0 89 0 90 0 85 118 89 118 88 118 90 119 89 119 85 119 91 120 90 120 86 120 88 121 91 121 87 121 111 122 102 122 103 122 103 123 104 123 106 123 104 124 105 124 106 124 106 0 107 0 110 0 107 125 108 125 110 125 110 0 111 0 103 0 108 126 109 126 110 126 103 127 102 127 92 127 94 128 104 128 103 128 105 129 104 129 94 129 106 130 105 130 95 130 107 131 106 131 96 131 108 132 107 132 97 132 99 133 109 133 108 133 100 134 110 134 109 134 101 135 111 135 110 135 102 136 111 136 101 136</p>
        </triangles>
      </mesh>
    </geometry>
    <geometry id="CollisionAligned-mesh" name="CollisionAligned">
      <mesh>
        <source id="CollisionAligned-mesh-positions">
          <float_array id="CollisionAligned-mesh-positions-array" count="114">-0.21875 0.2475 3.202 -0.21875 0.2725 0.202 -0.21875 -0.2524999 3.202 -0.21875 -0.2774999 0.202 -0.21875 -0.2524999 4.302 -0.21875 -0.2774999 9.202001 -0.21875 -0.2524999 7.202 -0.21875 0.2475 4.302 -0.21875 0.2475 7.202 -0.21875 0.2725 9.202001 -0.21875 0.2475 8.302 -0.21875 -0.2524999 8.302 0.4312501 0.2475 5.202 0.4312501 0.2725 0.202 0.4312501 0.2725 9.202001 0.4312501 -0.2774999 0.202 0.4312501 -0.2524999 5.202 0.4312501 -0.2774999 9.202001 0.4312501 -0.2524999 6.302 0.4312501 0.2475 6.302 0.006249964 0.09750008 9.702001 0.006249964 -0.1024999 9.702001 0.20625 0.09750008 9.702001 0.20625 -0.1024999 9.702001 1.35625 -1.2525 0.001999974 1.35625 1.2475 0.001999974 1.35625 -1.2525 0.202 1.35625 1.2475 0.202 -1.14375 -1.2525 0.001999974 -1.14375 -1.2525 0.202 -1.14375 1.2475 0.001999974 -1.14375 1.2475 0.202 -1.76875 -0.2524999 3.202 -1.76875 0.2475 3.202 1.98125 -0.2524999 5.202 1.98125 0.2475 5.202 -1.76875 -0.2524999 7.202 -1.76875 0.2475 7.202</float_array>
          <technique_common>
            <accessor source="#CollisionAligned-mesh-positions-array" count="38" stride="3">
              <param name="X" type="float" />
              <param name="Y" type="float" />
              <param name="Z" type="float" />
            </accessor>
          </technique_common>
        </source>
        <source id="CollisionAligned-mesh-normals">
          <float_array id="CollisionAligned-mesh-normals-array" count="93">-1 0 0 -1 -4.33488e-6 0 -1 2.11928e-6 0 -1 -1.64427e-6 0 -1 4.33488e-6 0 -1 -1.05964e-6 0 -1 -1.08372e-6 0 -1 1.08372e-6 0 1 -2.11928e-6 0 1 0 0 1 2.11928e-6 0 1 -2.16744e-6 0 1 2.16744e-6 0 0 1 0 0 -1 0 0 0 1 -0.9119214 0 0.4103651 -0.9119214 0 0.4103652 0 0.9438585 0.3303502 0 0.9438585 0.3303502 0 -0.9438583 0.3303505 0 -0.9438585 0.3303504 0.9119207 0 0.4103668 0.9119213 0 0.4103652 0 0 -1 0 0 1 -0.5787469 0 0.8155073 -0.5787471 0 0.8155072 0.5787473 0 0.8155071 0.5787473 0 0.815507 -0.5787473 0 0.8155071</float_array>
          <technique_common>
            <accessor source="#CollisionAligned-mesh-normals-array" count="31" stride="3">
              <param name="X" type="float" />
              <param name="Y" type="float" />
              <param name="Z" type="float" />
            </accessor>
          </technique_common>
        </source>
        <vertices id="CollisionAligned-mesh-vertices">
          <input semantic="POSITION" source="#CollisionAligned-mesh-positions" />
        </vertices>
        <triangles count="72">
          <input semantic="VERTEX" source="#CollisionAligned-mesh-vertices" offset="0" />
          <input semantic="NORMAL" source="#CollisionAligned-mesh-normals" offset="1" />
          <p>0 0 1 0 2 0 2 0 1 0 3 0 2 1 3 1 4 1 3 2 5 2 4 2 4 3 5 3 6 3 4 0 6 0 7 0 7 0 6 0 8 0 0 4 7 4 1 4 1 0 7 0 8 0 1 5 8 5 9 5 9 6 8 6 10 6 9 0 10 0 5 0 5 0 10 0 11 0 5 7 11 7 6 7 12 8 13 8 14 8 13 9 12 9 15 9 15 9 12 9 16 9 15 10 16 10 17 10 17 11 16 11 18 11 17 9 18 9 14 9 14 9 18 9 19 9 14 12 19 12 12 12 9 13 14 13 1 13 1 13 14 13 13 13 17 14 5 14 15 14 15 14 5 14 3 14 20 15 21 15 22 15 22 15 21 15 23 15 20 16 9 16 21 16 21 17 9 17 5 17 22 18 14 18 20 18 20 19 14 19 9 19 21 20 5 20 23 20 23 21 5 21 17 21 23 22 17 22 22 22 22 23 17 23 14 23 24 9 25 9 26 9 26 9 25 9 27 9 28 14 24 14 29 14 29 14 24 14 26 14 30 0 28 0 31 0 31 0 28 0 29 0 25 13 30 13 27 13 27 13 30 13 31 13 28 24 30 24 24 24 24 24 30 24 25 24 13 15 27 15 1 15 1 15 27 15 31 15 1 15 31 15 3 15 3 15 31 15 29 15 3 15 29 15 15 15 15 15 29 15 26 15 15 25 26 25 13 25 13 15 26 15 27 15 32 26 4 26 33 26 33 27 4 27 7 27 2 24 32 24 0 24 0 24 32 24 33 24 32 14 2 14 4 14 7 13 0 13 33 13 34 24 16 24 35 24 35 24 16 24 12 24 18 28 34 28 19 28 19 29 34 29 35 29 16 14 34 14 18 14 19 13 35 13 12 13 6 24 36 24 8 24 8 24 36 24 37 24 36 26 11 26 37 26 37 30 11 30 10 30 6 14 11 14 36 14 37 13 10 13 8 13</p>
        </triangles>
      </mesh>
    </geometry>
    <geometry id="CollisionAligned_001-mesh" name="CollisionAligned.001">
      <mesh>
        <source id="CollisionAligned_001-mesh-positions">
          <float_array id="CollisionAligned_001-mesh-positions-array" count="114">-0.21875 0.2475 3.202 -0.21875 0.2725 0.202 -0.21875 -0.2524999 3.202 -0.21875 -0.2774999 0.202 -0.21875 -0.2524999 4.302 -0.21875 -0.2774999 9.202001 -0.21875 -0.2524999 7.202 -0.21875 0.2475 4.302 -0.21875 0.2475 7.202 -0.21875 0.2725 9.202001 -0.21875 0.2475 8.302 -0.21875 -0.2524999 8.302 0.4312501 0.2475 5.202 0.4312501 0.2725 0.202 0.4312501 0.2725 9.202001 0.4312501 -0.2774999 0.202 0.4312501 -0.2524999 5.202 0.4312501 -0.2774999 9.202001 0.4312501 -0.2524999 6.302 0.4312501 0.2475 6.302 0.006249964 0.09750008 9.702001 0.006249964 -0.1024999 9.702001 0.20625 0.09750008 9.702001 0.20625 -0.1024999 9.702001 1.35625 -1.2525 0.001999974 1.35625 1.2475 0.001999974 1.35625 -1.2525 0.202 1.35625 1.2475 0.202 -1.14375 -1.2525 0.001999974 -1.14375 -1.2525 0.202 -1.14375 1.2475 0.001999974 -1.14375 1.2475 0.202 -1.76875 -0.2524999 3.202 -1.76875 0.2475 3.202 1.98125 -0.2524999 5.202 1.98125 0.2475 5.202 -1.76875 -0.2524999 7.202 -1.76875 0.2475 7.202</float_array>
          <technique_common>
            <accessor source="#CollisionAligned_001-mesh-positions-array" count="38" stride="3">
              <param name="X" type="float" />
              <param name="Y" type="float" />
              <param name="Z" type="float" />
            </accessor>
          </technique_common>
        </source>
        <source id="CollisionAligned_001-mesh-normals">
          <float_array id="CollisionAligned_001-mesh-normals-array" count="93">-1 0 0 -1 -4.33488e-6 0 -1 2.11928e-6 0 -1 -1.64427e-6 0 -1 4.33488e-6 0 -1 -1.05964e-6 0 -1 -1.08372e-6 0 -1 1.08372e-6 0 1 -2.11928e-6 0 1 0 0 1 2.11928e-6 0 1 -2.16744e-6 0 1 2.16744e-6 0 0 1 0 0 -1 0 0 0 1 -0.9119214 0 0.4103651 -0.9119214 0 0.4103652 0 0.9438585 0.3303502 0 0.9438585 0.3303502 0 -0.9438583 0.3303505 0 -0.9438585 0.3303504 0.9119207 0 0.4103668 0.9119213 0 0.4103652 0 0 -1 0 0 1 -0.5787469 0 0.8155073 -0.5787471 0 0.8155072 0.5787473 0 0.8155071 0.5787473 0 0.815507 -0.5787473 0 0.8155071</float_array>
          <technique_common>
            <accessor source="#CollisionAligned_001-mesh-normals-array" count="31" stride="3">
              <param name="X" type="float" />
              <param name="Y" type="float" />
              <param name="Z" type="float" />
            </accessor>
          </technique_common>
        </source>
        <vertices id="CollisionAligned_001-mesh-vertices">
          <input semantic="POSITION" source="#CollisionAligned_001-mesh-positions" />
        </vertices>
        <triangles count="72">
          <input semantic="VERTEX" source="#CollisionAligned_001-mesh-vertices" offset="0" />
          <input semantic="NORMAL" source="#CollisionAligned_001-mesh-normals" offset="1" />
          <p>0 0 1 0 2 0 2 0 1 0 3 0 2 1 3 1 4 1 3 2 5 2 4 2 4 3 5 3 6 3 4 0 6 0 7 0 7 0 6 0 8 0 0 4 7 4 1 4 1 0 7 0 8 0 1 5 8 5 9 5 9 6 8 6 10 6 9 0 10 0 5 0 5 0 10 0 11 0 5 7 11 7 6 7 12 8 13 8 14 8 13 9 12 9 15 9 15 9 12 9 16 9 15 10 16 10 17 10 17 11 16 11 18 11 17 9 18 9 14 9 14 9 18 9 19 9 14 12 19 12 12 12 9 13 14 13 1 13 1 13 14 13 13 13 17 14 5 14 15 14 15 14 5 14 3 14 20 15 21 15 22 15 22 15 21 15 23 15 20 16 9 16 21 16 21 17 9 17 5 17 22 18 14 18 20 18 20 19 14 19 9 19 21 20 5 20 23 20 23 21 5 21 17 21 23 22 17 22 22 22 22 23 17 23 14 23 24 9 25 9 26 9 26 9 25 9 27 9 28 14 24 14 29 14 29 14 24 14 26 14 30 0 28 0 31 0 31 0 28 0 29 0 25 13 30 13 27 13 27 13 30 13 31 13 28 24 30 24 24 24 24 24 30 24 25 24 13 15 27 15 1 15 1 15 27 15 31 15 1 15 31 15 3 15 3 15 31 15 29 15 3 15 29 15 15 15 15 15 29 15 26 15 15 25 26 25 13 25 13 15 26 15 27 15 32 26 4 26 33 26 33 27 4 27 7 27 2 24 32 24 0 24 0 24 32 24 33 24 32 14 2 14 4 14 7 13 0 13 33 13 34 24 16 24 35 24 35 24 16 24 12 24 18 28 34 28 19 28 19 29 34 29 35 29 16 14 34 14 18 14 19 13 35 13 12 13 6 24 36 24 8 24 8 24 36 24 37 24 36 26 11 26 37 26 37 30 11 30 10 30 6 14 11 14 36 14 37 13 10 13 8 13</p>
        </triangles>
      </mesh>
    </geometry>
    <geometry id="EXPORT_GOOGLE_SAT_WM-mesh" name="EXPORT_GOOGLE_SAT_WM">
      <mesh>
        <source id="EXPORT_GOOGLE_SAT_WM-mesh-positions">
          <float_array id="EXPORT_GOOGLE_SAT_WM-mesh-positions-array" count="12">-171.9833 114.6555 0 171.9833 114.6555 0 171.9833 -114.6555 0 -171.9833 -114.6555 0</float_array>
          <technique_common>
            <accessor source="#EXPORT_GOOGLE_SAT_WM-mesh-positions-array" count="4" stride="3">
              <param name="X" type="float" />
              <param name="Y" type="float" />
              <param name="Z" type="float" />
            </accessor>
          </technique_common>
        </source>
        <source id="EXPORT_GOOGLE_SAT_WM-mesh-normals">
          <float_array id="EXPORT_GOOGLE_SAT_WM-mesh-normals-array" count="3">0 0 1</float_array>
          <technique_common>
            <accessor source="#EXPORT_GOOGLE_SAT_WM-mesh-normals-array" count="1" stride="3">
              <param name="X" type="float" />
              <param name="Y" type="float" />
              <param name="Z" type="float" />
            </accessor>
          </technique_common>
        </source>
        <source id="EXPORT_GOOGLE_SAT_WM-mesh-map-0">
          <float_array id="EXPORT_GOOGLE_SAT_WM-mesh-map-0-array" count="12">1 0 0 1 0 0 1 0 1 1 0 1</float_array>
          <technique_common>
            <accessor source="#EXPORT_GOOGLE_SAT_WM-mesh-map-0-array" count="6" stride="2">
              <param name="S" type="float" />
              <param name="T" type="float" />
            </accessor>
          </technique_common>
        </source>
        <source id="EXPORT_GOOGLE_SAT_WM-mesh-map-1">
          <float_array id="EXPORT_GOOGLE_SAT_WM-mesh-map-1-array" count="12">0.9465027 0.02978342 0.01953125 0.8704808 0.01953125 0.02978342 0.9465027 0.02978342 0.9465027 0.8704808 0.01953125 0.8704808</float_array>
          <technique_common>
            <accessor source="#EXPORT_GOOGLE_SAT_WM-mesh-map-1-array" count="6" stride="2">
              <param name="S" type="float" />
              <param name="T" type="float" />
            </accessor>
          </technique_common>
        </source>
        <vertices id="EXPORT_GOOGLE_SAT_WM-mesh-vertices">
          <input semantic="POSITION" source="#EXPORT_GOOGLE_SAT_WM-mesh-positions" />
        </vertices>
        <triangles material="rastMat-material" count="2">
          <input semantic="VERTEX" source="#EXPORT_GOOGLE_SAT_WM-mesh-vertices" offset="0" />
          <input semantic="NORMAL" source="#EXPORT_GOOGLE_SAT_WM-mesh-normals" offset="1" />
          <input semantic="TEXCOORD" source="#EXPORT_GOOGLE_SAT_WM-mesh-map-0" offset="2" set="0" />
          <input semantic="TEXCOORD" source="#EXPORT_GOOGLE_SAT_WM-mesh-map-1" offset="2" set="1" />
          <p>2 0 0 0 0 1 3 0 2 2 0 3 1 0 4 0 0 5</p>
        </triangles>
      </mesh>
    </geometry>
  </library_geometries>
  <library_visual_scenes>
    <visual_scene id="Scene" name="Scene">
      <node id="Areas_building_002" name="Areas:building.002" type="NODE">
        <matrix sid="transform">0.5622476 0 0 -25.8103 0 0.5622476 0 9.04972 0 0 0.5622476 -0.3558619 0 0 0 1</matrix>
        <instance_geometry url="#Areas_building_002-mesh" name="Areas:building.002" />
      </node>
      <node id="Areas_building_001" name="Areas:building.001" type="NODE">
        <matrix sid="transform">0.5622476 0 0 -25.8103 0 0.5622476 0 9.04972 0 0 0.5622476 -9.47014 0 0 0 1</matrix>
        <instance_geometry url="#Areas_building_001-mesh" name="Areas:building.001" />
      </node>
      <node id="CollisionAligned" name="CollisionAligned" type="NODE">
        <matrix sid="transform">0.2521924 -0.9676771 0 1.57975 0.9676771 0.2521924 0 -21.7572 0 0 1 0.508488 0 0 0 1</matrix>
        <instance_geometry url="#CollisionAligned-mesh" name="CollisionAligned" />
      </node>
      <node id="CollisionAligned_001" name="CollisionAligned.001" type="NODE">
        <matrix sid="transform">0.2521924 -0.9676771 0 -32.1392 0.9676771 0.2521924 0 -13.2854 0 0 1 0.366521 0 0 0 1</matrix>
        <instance_geometry url="#CollisionAligned_001-mesh" name="CollisionAligned.001" />
      </node>
      <node id="EXPORT_GOOGLE_SAT_WM" name="EXPORT_GOOGLE_SAT_WM" type="NODE">
        <matrix sid="transform">0.5622476 0 0 -29.8287 0 0.5622476 0 15.4486 0 0 0.5622476 0.52 0 0 0 1</matrix>
        <instance_geometry url="#EXPORT_GOOGLE_SAT_WM-mesh" name="EXPORT_GOOGLE_SAT_WM">
          <bind_material>
            <technique_common>
              <instance_material symbol="rastMat-material" target="#rastMat-material">
                <bind_vertex_input semantic="EXPORT_GOOGLE_SAT_WM-mesh-map-0" input_semantic="TEXCOORD" input_set="0" />
                <bind_vertex_input semantic="EXPORT_GOOGLE_SAT_WM-mesh-map-1" input_semantic="TEXCOORD" input_set="1" />
              </instance_material>
            </technique_common>
          </bind_material>
        </instance_geometry>
      </node>
    </visual_scene>
  </library_visual_scenes>
  <scene>
    <instance_visual_scene url="#Scene" />
  </scene>
</COLLADA>